<svg width="174.000000" height="23.000000" viewBox="0 0 174 23" fill="none" xmlns="http://www.w3.org/2000/svg" xmlns:xlink="http://www.w3.org/1999/xlink">
	<desc>
			Created with Pixso.
	</desc>
	<defs/>
	<path id="HealhtyCarely" d="M3.2 17.5L-0.49 17.5L-0.49 0.04L3.2 0.04L3.2 7.24L10.69 7.24L10.69 0.04L14.38 0.04L14.38 17.5L10.69 17.5L10.69 10.28L3.2 10.28L3.2 17.5ZM47.78 0.04L51.41 0.04L51.41 17.5L47.78 17.5L47.78 0.04ZM61.18 7.25C59.7 7.25 58.67 8.24 58.66 9.92L58.66 17.5L55.03 17.5L55.03 0.04L58.55 0.04L58.55 6.71L58.71 6.71C59.3 5.17 60.63 4.24 62.62 4.24C65.35 4.24 67.16 6.09 67.15 9.16L67.15 17.5L63.52 17.5L63.52 9.81C63.52 8.2 62.66 7.25 61.18 7.25ZM75.23 4.41L77.7 4.41L77.7 7.13L75.23 7.13L75.23 13.47C75.23 14.48 75.73 14.75 76.46 14.75C76.8 14.75 77.18 14.66 77.36 14.63L77.93 17.33C77.57 17.45 76.9 17.64 75.96 17.68C73.33 17.78 71.59 16.52 71.6 13.95L71.6 7.13L69.81 7.13L69.81 4.41L71.6 4.41L71.6 1.27L75.23 1.27L75.23 4.41ZM29.97 13.75C29.46 16.18 27.27 17.75 24.03 17.75C20 17.75 17.54 15.16 17.54 11.01C17.54 6.97 20.04 4.24 23.89 4.24C27.35 4.24 30.05 6.43 30.05 10.88L30.05 11.88L21.13 11.88L21.13 11.89C21.13 13.84 22.28 15.04 24.1 15.04C25.3 15.04 26.24 14.52 26.61 13.52L29.97 13.75ZM40.69 15.68C40.05 16.9 38.8 17.74 36.86 17.74C34.37 17.74 32.52 16.43 32.52 13.84C32.52 10.91 34.85 10.05 37.44 9.81C39.71 9.58 40.61 9.47 40.61 8.63L40.61 8.58C40.61 7.5 39.9 6.88 38.66 6.88C37.36 6.88 36.58 7.52 36.34 8.4L32.98 8.12C33.48 5.74 35.55 4.24 38.68 4.24C41.6 4.24 44.24 5.55 44.24 8.66L44.24 17.5L40.8 17.5L40.8 15.68L40.69 15.68ZM87.89 18.91C87.15 21.02 85.72 22.41 83.02 22.41C82.1 22.41 81.25 22.25 80.73 22.03L81.55 19.32C82.83 19.71 83.74 19.65 84.22 18.43L84.43 17.87L79.74 4.41L83.55 4.41L86.26 14.02L86.4 14.02L89.14 4.41L92.98 4.41L87.89 18.91ZM23.95 6.94C22.34 6.94 21.21 8.14 21.13 9.63L26.63 9.63C26.62 8.07 25.53 6.94 23.95 6.94ZM35.99 13.72C35.99 14.72 36.79 15.24 37.91 15.24C39.5 15.24 40.63 14.19 40.63 12.81L40.63 11.42C40.2 11.72 38.9 11.91 38.11 12.02C36.84 12.19 35.99 12.7 35.99 13.72Z" fill="#121212" fill-opacity="1.000000" fill-rule="evenodd"/>
	<path id="HealhtyCarely" d="M103.45 -0.2C107.49 -0.2 110.54 2.12 111.03 6.15L107.29 6.15C107.01 4.24 105.55 3.06 103.54 3.06C100.84 3.06 99.06 5.14 99.06 8.77C99.06 12.5 100.86 14.47 103.51 14.47C105.48 14.47 106.95 13.39 107.29 11.53L111.03 11.55C110.63 14.76 107.93 17.74 103.45 17.74C98.78 17.74 95.32 14.46 95.32 8.77C95.32 3.06 98.84 -0.2 103.45 -0.2ZM153.95 0.04L157.59 0.04L157.59 17.5L153.95 17.5L153.95 0.04ZM132.61 17.5L128.97 17.5L128.97 4.41L132.5 4.41L132.5 6.69L132.63 6.69C133.11 5.07 134.31 4.22 135.78 4.22C136.14 4.22 136.6 4.27 136.92 4.35L136.92 7.56C136.58 7.46 135.89 7.37 135.38 7.37C133.78 7.37 132.61 8.48 132.61 10.09L132.61 17.5ZM121.89 15.68C121.25 16.9 120 17.74 118.06 17.74C115.56 17.74 113.72 16.43 113.72 13.84C113.72 10.91 116.04 10.05 118.63 9.81C120.91 9.58 121.8 9.47 121.8 8.63L121.8 8.58C121.8 7.5 121.1 6.88 119.86 6.88C118.56 6.88 117.78 7.52 117.53 8.4L114.18 8.12C114.68 5.74 116.74 4.24 119.88 4.24C122.79 4.24 125.44 5.55 125.44 8.66L125.44 17.5L121.99 17.5L121.99 15.68L121.89 15.68ZM150.79 13.75C150.28 16.18 148.1 17.75 144.85 17.75C140.82 17.75 138.36 15.16 138.36 11.01C138.36 6.97 140.86 4.24 144.71 4.24C148.17 4.24 150.87 6.43 150.87 10.88L150.87 11.88L141.95 11.88L141.95 11.89C141.95 13.84 143.1 15.04 144.92 15.04C146.13 15.04 147.06 14.52 147.43 13.52L150.79 13.75ZM168.32 18.91C167.58 21.02 166.15 22.41 163.45 22.41C162.53 22.41 161.68 22.25 161.16 22.03L161.98 19.32C163.26 19.71 164.17 19.65 164.65 18.43L164.86 17.87L160.16 4.41L163.98 4.41L166.69 14.02L166.83 14.02L169.56 4.41L173.41 4.41L168.32 18.91ZM144.77 6.94C143.16 6.94 142.03 8.14 141.95 9.63L147.45 9.63C147.44 8.07 146.35 6.94 144.77 6.94ZM117.19 13.72C117.19 14.72 117.98 15.24 119.1 15.24C120.7 15.24 121.83 14.19 121.83 12.81L121.83 11.42C121.39 11.72 120.1 11.91 119.31 12.02C118.03 12.19 117.19 12.7 117.19 13.72Z" fill="#4D77FF" fill-opacity="1.000000" fill-rule="evenodd"/>
</svg>
